# xmcd
#
# Track frame offsets:
# 150
# 19313
# 41524
# 62505
# 81337
# 103888
# 128905
# 146392
# 165657
# 186260
# 206423
# 229496
#
# Disc length: 3333 seconds
#
#
# Revision: 0
# Processed by: cddbd v1.5.2PL0 Copyright (c) Steve Scherf et al.
# Submitted via: FreeRIP 2.96 
#
DISCID=a80d030c
DTITLE=Rudi Gunka and Matthias Huelsemann - Bar Musik (Vol. 1)
DYEAR=1995
DGENRE=Jazz
TTITLE0=Night and Day
TTITLE1=The Shadow Of Your Smile
TTITLE2=As Time Goes By
TTITLE3=Autumn Leaves
TTITLE4=Black Orpheus
TTITLE5=Somewhere Over The Rainbow
TTITLE6=Blue Bossa
TTITLE7=Fly Me To The Moon
TTITLE8=Tenderly
TTITLE9=Misty
TTITLE10=You Are The Sunshine Of My Life
TTITLE11=The Days Of Wine And Roses
EXTD=Piano: Matthias Hülsemann\nSchlagzeug: Uli Tietzel\nBaß: Oliver Karsten\nSaxophon: Rudi Gunka\nKeyboards: Dirk Nagel\n
EXTT0=C. Porter
EXTT1=J. Mandel
EXTT2=H. Hupfeld
EXTT3=J. Kosma
EXTT4=L. Bonfa
EXTT5=H. Arlen
EXTT6=K. Dorham
EXTT7=B. Howard
EXTT8=W. Gross
EXTT9=W. Gross
EXTT10=S. Wonder
EXTT11=H. Mancini
PLAYORDER=
